# xmcd
#
# Track frame offsets:
#	150
#	13459
#	24549
#	37585
#	48505
#	60732
#	76331
#	90740
#	104141
#	118119
#	131555
#	144758
#	158553
#	171009
#	179948
#	195547
#	207062
#	220921
#	232227
#	242669
#	255116
#	268745
#	282222
#
# Disc length: 3951 seconds
#
# Revision: 1
# Processed by: cddbd v1.5.2PL0 Copyright (c) Steve Scherf et al.
# Submitted via: EZCDAudioConverter 2.1.7.1
#
DISCID=480f6d17
DTITLE=The Creation - Action Painting 1/2
DYEAR=2017
DGENRE=
TTITLE0=Making Time
TTITLE1=Try And Stop Me
TTITLE2=Painter Man
TTITLE3=Biff, Bang, Pow
TTITLE4=Sylvette
TTITLE5=If I Stay Too Long
TTITLE6=Nightmares
TTITLE7=Life Is Just Beginning
TTITLE8=Through My Eyes
TTITLE9=How Does It Feel To Feel [UK Version]
TTITLE10=Tom Tom
TTITLE11=Can I Join Your Band
TTITLE12=Midway Down
TTITLE13=The Girls Are Naked
TTITLE14=Bonie Moronie
TTITLE15=Mercy, Mercy, Mercy
TTITLE16=For All That I Am
TTITLE17=Uncle Bert
TTITLE18=Cool Jerk
TTITLE19=I Am The Walker
TTITLE20=Ostrich Man
TTITLE21=Sweet Helen
TTITLE22=How Does It Feel To Feel [US Version]
EXTD=
EXTT0=
EXTT1=
EXTT2=
EXTT3=
EXTT4=
EXTT5=
EXTT6=
EXTT7=
EXTT8=
EXTT9=
EXTT10=
EXTT11=
EXTT12=
EXTT13=
EXTT14=
EXTT15=
EXTT16=
EXTT17=
EXTT18=
EXTT19=
EXTT20=
EXTT21=
EXTT22=
PLAYORDER=
